<?xml version="1.0" encoding="UTF-8"?>
<svg id="Layer_1" xmlns="http://www.w3.org/2000/svg" version="1.1" viewBox="0 0 512 512">
  <!-- Generator: Adobe Illustrator 29.8.1, SVG Export Plug-In . SVG Version: 2.1.1 Build 2)  -->
  <defs>
    <style>
      .st0 {
        fill: #fefdef;
      }
    </style>
  </defs>
  <path class="st0" d="M256.57,124c72,0,131.43,59.43,131.43,131.43s-59.43,131.43-131.43,131.43-131.43-58.28-131.43-131.43,58.29-131.43,131.43-131.43ZM256.57,341.14c46.86,0,84.57-37.72,84.57-85.72s-37.72-84.57-84.57-84.57-85.71,37.71-85.71,84.57,38.86,85.72,85.71,85.72ZM423.43,119.43c0-17.14-13.71-30.86-30.86-30.86s-30.86,13.71-30.86,30.86,13.71,30.86,30.86,30.86,30.86-13.71,30.86-30.86ZM510.28,150.29c2.29,42.29,2.29,169.14,0,211.43-2.28,41.14-11.43,76.57-41.14,107.43-29.72,29.71-66.29,38.86-107.43,41.14-42.29,2.29-169.14,2.29-211.43,0-41.14-2.28-76.57-11.43-107.43-41.14C13.14,438.28,4,402.86,1.71,361.72c-2.29-42.29-2.29-169.14,0-211.43,2.29-41.14,11.43-77.71,41.14-107.43C73.71,13.14,109.14,4,150.29,1.71c42.29-2.29,169.14-2.29,211.43,0,41.14,2.29,77.71,11.43,107.43,41.14,29.71,29.71,38.86,66.29,41.14,107.43ZM455.43,406.28c13.72-33.14,10.29-113.14,10.29-150.86s3.43-116.57-10.29-150.86c-9.14-21.71-26.28-40-48-48-34.28-13.71-114.28-10.29-150.86-10.29s-117.71-3.43-150.86,10.29c-22.86,9.14-40,26.29-49.14,48-13.71,34.29-10.29,114.29-10.29,150.86s-3.43,117.72,10.29,150.86c9.14,22.86,26.29,40,49.14,49.14,33.14,13.72,113.14,10.29,150.86,10.29s116.57,3.43,150.86-10.29c21.72-9.14,40-26.28,48-49.14Z"/>
</svg>